<svg width="16" height="16" viewBox="0 0 16 16" fill="none" xmlns="http://www.w3.org/2000/svg">
<path d="M13.3333 1.99999H12.6666V1.33332C12.6666 0.966656 12.3666 0.666656 11.9999 0.666656C11.6333 0.666656 11.3333 0.966656 11.3333 1.33332V1.99999H4.66659V1.33332C4.66659 0.966656 4.36659 0.666656 3.99992 0.666656C3.63325 0.666656 3.33325 0.966656 3.33325 1.33332V1.99999H2.66659C1.93325 1.99999 1.33325 2.59999 1.33325 3.33332V14C1.33325 14.7333 1.93325 15.3333 2.66659 15.3333H13.3333C14.0666 15.3333 14.6666 14.7333 14.6666 14V3.33332C14.6666 2.59999 14.0666 1.99999 13.3333 1.99999ZM12.6666 14H3.33325C2.96659 14 2.66659 13.7 2.66659 13.3333V5.33332H13.3333V13.3333C13.3333 13.7 13.0333 14 12.6666 14Z" fill="#1E293B"/>
</svg>
